<svg width="80" height="80" viewBox="0 0 80 80" fill="none" xmlns="http://www.w3.org/2000/svg">
<g clip-path="url(#clip0_58_2)">
<path d="M70.4523 45.0049C58.3105 45.266 46.9521 50.4883 34.8104 51.1411C31.2853 51.2716 27.7603 50.88 25.0186 49.3133C29.9798 48.3996 34.6798 46.7024 38.2048 43.4383C41.9912 40.044 42.3826 33.7773 40.0326 29.3384C37.8132 25.1606 32.1992 25.03 28.2825 26.0745C19.0128 28.2937 12.7463 39.391 17.9684 47.2242C12.2239 47.6159 6.47939 47.2242 0.865459 47.4855C-0.309549 47.6158 -0.309549 49.3131 0.996016 49.3131C6.7405 49.7048 13.66 50.227 20.4489 49.8353C20.8406 50.0966 21.2323 50.4883 21.6239 50.7492C35.4629 60.4104 55.6992 48.2686 70.5826 47.877C72.2799 47.7464 72.2799 44.8744 70.4523 45.0049ZM19.1434 41.8714C17.7072 36.5188 22.4073 31.9493 26.7156 29.7296C31.024 27.5101 37.1602 27.5101 38.5963 33.1241C40.2935 39.6519 34.6796 43.5684 29.3268 45.2658C26.8462 46.0492 24.4962 46.5714 22.0156 46.8325C20.5797 45.5269 19.6658 43.9603 19.1434 41.8714Z" fill="#6EA3FF"/>
<path d="M79.3299 45.1353C77.5024 43.9603 75.8051 42.7853 74.1079 41.6105C72.6718 40.566 71.2357 39.391 69.5384 38.9994C68.2329 38.6077 66.9273 40.566 68.1023 41.4797C69.5384 42.5242 71.1051 43.4381 72.5414 44.352C73.5859 45.005 74.6303 45.7881 75.544 46.4409C74.4996 46.9631 73.4551 47.3548 72.4107 47.877C71.6273 48.2687 70.7134 48.6603 69.9301 49.052C69.669 49.1826 69.4079 49.4437 69.2771 49.7048C68.8854 50.227 69.1467 49.9661 69.2771 49.8353C68.7551 50.227 68.7551 51.5326 69.669 51.402C69.9301 51.5326 70.191 51.5326 70.5827 51.5326C71.4965 51.2715 72.5412 50.8798 73.4549 50.4881C75.4135 49.7046 77.3716 48.9212 79.1996 47.877C80.2438 47.0939 80.2438 45.6575 79.3299 45.1353Z" fill="#6EA3FF"/>
</g>
<defs>
<clipPath id="clip0_58_2">
<rect width="80" height="80" fill="white"/>
</clipPath>
</defs>
</svg>
